<svg width="549" height="163" viewBox="0 0 549 163" fill="none" xmlns="http://www.w3.org/2000/svg">
<mask id="path-1-outside-1_1_6" maskUnits="userSpaceOnUse" x="102" y="35" width="442" height="123" fill="black">
<rect fill="white" x="102" y="35" width="442" height="123"/>
<path d="M131.44 129.2C122.8 129.2 116 126.44 111.04 120.92C106.08 115.4 103.6 107 103.6 95.72C103.6 84.52 105.96 76.2 110.68 70.76C115.48 65.24 122.52 62.48 131.8 62.48C140.44 62.48 147.24 65.24 152.2 70.76C157.16 76.2 159.64 84.52 159.64 95.72C159.64 107 157.24 115.4 152.44 120.92C147.72 126.44 140.72 129.2 131.44 129.2ZM131.68 122.96C135.68 122.96 138.88 121.96 141.28 119.96C143.68 117.88 145.4 114.8 146.44 110.72C147.48 106.64 148 101.64 148 95.72C148 89.72 147.44 84.76 146.32 80.84C145.28 76.84 143.56 73.84 141.16 71.84C138.76 69.84 135.56 68.84 131.56 68.84C127.56 68.84 124.36 69.84 121.96 71.84C119.56 73.84 117.84 76.84 116.8 80.84C115.76 84.76 115.24 89.72 115.24 95.72C115.24 101.64 115.76 106.64 116.8 110.72C117.92 114.8 119.68 117.88 122.08 119.96C124.48 121.96 127.68 122.96 131.68 122.96ZM170.218 128V122.96H170.578C172.418 122.96 174.058 122.76 175.498 122.36C177.018 121.96 178.218 121.16 179.098 119.96C179.978 118.68 180.418 116.8 180.418 114.32V76.88C180.418 74.48 179.938 72.72 178.978 71.6C178.098 70.4 176.898 69.64 175.378 69.32C173.938 68.92 172.338 68.72 170.578 68.72H170.218V63.68H188.698L190.978 75.56H191.578C192.618 73.16 193.738 70.96 194.938 68.96C196.138 66.96 197.738 65.4 199.738 64.28C201.738 63.08 204.498 62.48 208.018 62.48C212.418 62.48 215.658 63.24 217.738 64.76C219.898 66.28 220.978 68.44 220.978 71.24C220.978 73.72 220.098 75.76 218.338 77.36C216.658 78.96 213.818 79.76 209.818 79.76C209.818 77.52 209.618 75.72 209.218 74.36C208.818 73 208.138 72 207.178 71.36C206.298 70.72 205.058 70.4 203.458 70.4C201.218 70.4 199.338 71.28 197.818 73.04C196.298 74.8 195.098 77.04 194.218 79.76C193.338 82.48 192.698 85.32 192.298 88.28C191.898 91.16 191.698 93.76 191.698 96.08V114.92C191.698 117.24 192.138 119 193.018 120.2C193.978 121.32 195.178 122.08 196.618 122.48C198.138 122.8 199.778 122.96 201.538 122.96H204.898V128H170.218ZM227.302 151.16C231.382 151.16 234.902 150.56 237.862 149.36C240.822 148.16 243.342 146.48 245.422 144.32C247.502 142.24 249.262 139.76 250.702 136.88C252.142 134 253.342 130.88 254.302 127.52L232.102 75.08C231.382 73.4 230.662 72.12 229.942 71.24C229.222 70.28 228.382 69.64 227.422 69.32C226.462 68.92 225.182 68.72 223.582 68.72H223.222V63.68H252.022V68.72H251.662C249.262 68.72 247.462 69.2 246.262 70.16C245.062 71.04 244.462 72.48 244.462 74.48C244.462 75.12 244.542 75.8 244.702 76.52C244.862 77.24 245.102 78.04 245.422 78.92L254.182 100.28C254.742 101.64 255.302 103.12 255.862 104.72C256.502 106.32 257.102 107.92 257.662 109.52C258.222 111.12 258.702 112.64 259.102 114.08C259.502 115.52 259.782 116.72 259.942 117.68C260.502 115.36 261.222 112.96 262.102 110.48C263.062 108 263.942 105.56 264.742 103.16L272.782 79.76C273.182 78.8 273.462 77.88 273.622 77C273.782 76.04 273.862 75.24 273.862 74.6C273.862 72.52 273.182 71.04 271.822 70.16C270.542 69.2 268.582 68.72 265.942 68.72H265.582V63.68H290.542V68.72H290.182C288.662 68.72 287.382 68.96 286.342 69.44C285.302 69.92 284.382 70.84 283.582 72.2C282.862 73.56 282.022 75.52 281.062 78.08L262.822 128.48C260.742 134.32 258.742 139.08 256.822 142.76C254.902 146.44 252.742 149.28 250.342 151.28C248.022 153.36 245.102 154.8 241.582 155.6C238.062 156.4 233.662 156.8 228.382 156.8H227.302V151.16ZM319.394 129.2C313.314 129.2 308.874 127.84 306.074 125.12C303.354 122.32 301.994 117.48 301.994 110.6V70.52H292.874V65.72C294.314 65.72 295.914 65.44 297.674 64.88C299.434 64.24 300.954 63.24 302.234 61.88C303.594 60.44 304.714 58.68 305.594 56.6C306.474 54.52 307.194 51.96 307.754 48.92H313.274V63.68H328.994V70.52H313.274V110.96C313.274 115.04 314.114 118.04 315.794 119.96C317.474 121.88 319.674 122.84 322.394 122.84C323.834 122.84 325.154 122.76 326.354 122.6C327.554 122.44 328.794 122.24 330.074 122V127.28C329.034 127.76 327.474 128.2 325.394 128.6C323.314 129 321.314 129.2 319.394 129.2ZM335.541 128V122.96H337.101C338.861 122.96 340.461 122.8 341.901 122.48C343.421 122.08 344.621 121.32 345.501 120.2C346.461 119 346.941 117.24 346.941 114.92V76.88C346.941 74.48 346.461 72.72 345.501 71.6C344.621 70.4 343.421 69.64 341.901 69.32C340.461 68.92 338.861 68.72 337.101 68.72H336.741V63.68H358.221V114.32C358.221 116.8 358.661 118.68 359.541 119.96C360.421 121.16 361.621 121.96 363.141 122.36C364.661 122.76 366.301 122.96 368.061 122.96H369.621V128H335.541ZM352.101 51.68C350.181 51.68 348.541 51.12 347.181 50C345.901 48.88 345.261 46.96 345.261 44.24C345.261 41.44 345.901 39.52 347.181 38.48C348.541 37.36 350.181 36.8 352.101 36.8C353.941 36.8 355.541 37.36 356.901 38.48C358.261 39.52 358.941 41.44 358.941 44.24C358.941 46.96 358.261 48.88 356.901 50C355.541 51.12 353.941 51.68 352.101 51.68ZM374.579 128V122.96H376.139C377.979 122.96 379.579 122.76 380.939 122.36C382.299 121.96 383.379 121.16 384.179 119.96C384.979 118.68 385.379 116.8 385.379 114.32V76.88C385.379 74.48 384.979 72.72 384.179 71.6C383.379 70.4 382.259 69.64 380.819 69.32C379.459 68.92 377.899 68.72 376.139 68.72H375.779V63.68H394.619L396.179 73.4H396.779C398.379 70.36 400.099 68.08 401.939 66.56C403.779 64.96 405.779 63.88 407.939 63.32C410.099 62.76 412.419 62.48 414.899 62.48C417.459 62.48 419.859 62.84 422.099 63.56C424.419 64.28 426.459 65.44 428.219 67.04C429.979 68.56 431.339 70.68 432.299 73.4H433.259C434.859 70.36 436.619 68.08 438.539 66.56C440.539 64.96 442.659 63.88 444.899 63.32C447.219 62.76 449.619 62.48 452.099 62.48C458.259 62.48 463.059 64.36 466.499 68.12C469.939 71.8 471.659 77.76 471.659 86V114.32C471.659 116.8 472.059 118.68 472.859 119.96C473.659 121.16 474.739 121.96 476.099 122.36C477.539 122.76 479.139 122.96 480.899 122.96H481.259V128H460.379V86.6C460.379 81.4 459.419 77.36 457.499 74.48C455.659 71.6 452.419 70.16 447.779 70.16C444.499 70.16 441.859 71 439.859 72.68C437.939 74.28 436.539 76.44 435.659 79.16C434.859 81.88 434.459 84.84 434.459 88.04V114.32C434.459 116.8 434.859 118.68 435.659 119.96C436.459 121.16 437.539 121.96 438.899 122.36C440.339 122.76 441.939 122.96 443.699 122.96H444.059V128H423.179V86.6C423.179 81.4 422.219 77.36 420.299 74.48C418.459 71.6 415.219 70.16 410.579 70.16C407.139 70.16 404.379 71.08 402.299 72.92C400.299 74.68 398.859 77.04 397.979 80C397.099 82.96 396.659 86.16 396.659 89.6V114.92C396.659 117.24 397.099 119 397.979 120.2C398.939 121.32 400.139 122.08 401.579 122.48C403.099 122.8 404.739 122.96 406.499 122.96H406.859V128H374.579ZM519.096 129.2C510.376 129.2 503.536 126.32 498.576 120.56C493.696 114.8 491.256 106.72 491.256 96.32C491.256 85.12 493.576 76.68 498.216 71C502.856 65.32 509.416 62.48 517.896 62.48C525.656 62.48 531.736 64.88 536.136 69.68C540.616 74.48 542.856 81.64 542.856 91.16V96.68H502.896C503.056 102.52 503.816 107.28 505.176 110.96C506.536 114.64 508.496 117.36 511.056 119.12C513.696 120.8 516.936 121.64 520.776 121.64C523.576 121.64 526.056 121.24 528.216 120.44C530.456 119.64 532.376 118.6 533.976 117.32C535.656 116.04 536.976 114.68 537.936 113.24C538.496 113.48 539.016 113.96 539.496 114.68C539.976 115.4 540.216 116.28 540.216 117.32C540.216 118.92 539.456 120.64 537.936 122.48C536.416 124.32 534.096 125.92 530.976 127.28C527.856 128.56 523.896 129.2 519.096 129.2ZM530.736 90.2C530.736 85.96 530.296 82.24 529.416 79.04C528.616 75.84 527.256 73.36 525.336 71.6C523.416 69.84 520.856 68.96 517.656 68.96C514.696 68.96 512.176 69.8 510.096 71.48C508.096 73.08 506.496 75.44 505.296 78.56C504.176 81.68 503.456 85.56 503.136 90.2H530.736Z"/>
</mask>
<path d="M111.04 120.92L111.784 120.252L111.784 120.252L111.04 120.92ZM110.68 70.76L109.925 70.1038L109.925 70.1046L110.68 70.76ZM152.2 70.76L151.456 71.4284L151.461 71.4338L152.2 70.76ZM152.44 120.92L151.685 120.264L151.68 120.27L152.44 120.92ZM141.28 119.96L141.92 120.728L141.928 120.722L141.935 120.716L141.28 119.96ZM146.44 110.72L147.409 110.967L147.409 110.967L146.44 110.72ZM146.32 80.84L145.352 81.0916L145.355 81.1032L145.358 81.1147L146.32 80.84ZM116.8 80.84L117.767 81.0964L117.768 81.0916L116.8 80.84ZM116.8 110.72L115.831 110.967L115.833 110.976L115.836 110.985L116.8 110.72ZM122.08 119.96L121.425 120.716L121.432 120.722L121.44 120.728L122.08 119.96ZM131.44 129.2V128.2C123.033 128.2 116.522 125.525 111.784 120.252L111.04 120.92L110.296 121.588C115.478 127.355 122.567 130.2 131.44 130.2V129.2ZM111.04 120.92L111.784 120.252C107.056 114.99 104.6 106.877 104.6 95.72H103.6H102.6C102.6 107.123 105.104 115.81 110.296 121.588L111.04 120.92ZM103.6 95.72H104.6C104.6 84.6332 106.94 76.596 111.435 71.4153L110.68 70.76L109.925 70.1046C104.98 75.804 102.6 84.4067 102.6 95.72H103.6ZM110.68 70.76L111.435 71.4162C115.996 66.1706 122.726 63.48 131.8 63.48V62.48V61.48C122.314 61.48 114.964 64.3094 109.925 70.1038L110.68 70.76ZM131.8 62.48V63.48C140.207 63.48 146.718 66.1548 151.456 71.4284L152.2 70.76L152.944 70.0916C147.762 64.3252 140.673 61.48 131.8 61.48V62.48ZM152.2 70.76L151.461 71.4338C156.184 76.6139 158.64 84.6433 158.64 95.72H159.64H160.64C160.64 84.3967 158.136 75.7861 152.939 70.0862L152.2 70.76ZM159.64 95.72H158.64C158.64 106.884 156.261 115.002 151.685 120.264L152.44 120.92L153.195 121.576C158.219 115.798 160.64 107.116 160.64 95.72H159.64ZM152.44 120.92L151.68 120.27C147.2 125.509 140.515 128.2 131.44 128.2V129.2V130.2C140.925 130.2 148.24 127.371 153.2 121.57L152.44 120.92ZM131.68 122.96V123.96C135.847 123.96 139.295 122.916 141.92 120.728L141.28 119.96L140.64 119.192C138.465 121.004 135.513 121.96 131.68 121.96V122.96ZM141.28 119.96L141.935 120.716C144.532 118.465 146.335 115.181 147.409 110.967L146.44 110.72L145.471 110.473C144.465 114.419 142.828 117.295 140.625 119.204L141.28 119.96ZM146.44 110.72L147.409 110.967C148.476 106.781 149 101.692 149 95.72H148H147C147 101.588 146.484 106.499 145.471 110.473L146.44 110.72ZM148 95.72H149C149 89.6665 148.436 84.6059 147.282 80.5653L146.32 80.84L145.358 81.1147C146.444 84.9141 147 89.7735 147 95.72H148ZM146.32 80.84L147.288 80.5884C146.212 76.4508 144.405 73.2427 141.8 71.0718L141.16 71.84L140.52 72.6082C142.715 74.4373 144.348 77.2291 145.352 81.0916L146.32 80.84ZM141.16 71.84L141.8 71.0718C139.175 68.8841 135.727 67.84 131.56 67.84V68.84V69.84C135.393 69.84 138.345 70.7959 140.52 72.6082L141.16 71.84ZM131.56 68.84V67.84C127.393 67.84 123.945 68.8841 121.32 71.0718L121.96 71.84L122.6 72.6082C124.775 70.7959 127.727 69.84 131.56 69.84V68.84ZM121.96 71.84L121.32 71.0718C118.715 73.2427 116.908 76.4508 115.832 80.5884L116.8 80.84L117.768 81.0916C118.772 77.2291 120.405 74.4373 122.6 72.6082L121.96 71.84ZM116.8 80.84L115.833 80.5836C114.763 84.6168 114.24 89.6706 114.24 95.72H115.24H116.24C116.24 89.7694 116.757 84.9032 117.767 81.0964L116.8 80.84ZM115.24 95.72H114.24C114.24 101.692 114.764 106.781 115.831 110.967L116.8 110.72L117.769 110.473C116.756 106.499 116.24 101.588 116.24 95.72H115.24ZM116.8 110.72L115.836 110.985C116.991 115.193 118.833 118.47 121.425 120.716L122.08 119.96L122.735 119.204C120.527 117.29 118.849 114.407 117.764 110.455L116.8 110.72ZM122.08 119.96L121.44 120.728C124.065 122.916 127.513 123.96 131.68 123.96V122.96V121.96C127.847 121.96 124.895 121.004 122.72 119.192L122.08 119.96ZM170.218 128H169.218V129H170.218V128ZM170.218 122.96V121.96H169.218V122.96H170.218ZM175.498 122.36L175.243 121.393L175.23 121.396L175.498 122.36ZM179.098 119.96L179.904 120.551L179.913 120.539L179.922 120.527L179.098 119.96ZM178.978 71.6L178.171 72.1914L178.194 72.222L178.219 72.2508L178.978 71.6ZM175.378 69.32L175.11 70.2835L175.141 70.292L175.172 70.2985L175.378 69.32ZM170.218 68.72H169.218V69.72H170.218V68.72ZM170.218 63.68V62.68H169.218V63.68H170.218ZM188.698 63.68L189.68 63.4915L189.524 62.68H188.698V63.68ZM190.978 75.56L189.996 75.7485L190.151 76.56H190.978V75.56ZM191.578 75.56V76.56H192.234L192.495 75.9576L191.578 75.56ZM194.938 68.96L195.795 69.4745L194.938 68.96ZM199.738 64.28L200.226 65.1525L200.239 65.1452L200.252 65.1375L199.738 64.28ZM217.738 64.76L217.148 65.5674L217.155 65.5727L217.162 65.5778L217.738 64.76ZM218.338 77.36L217.665 76.6201L217.657 76.6279L217.648 76.6359L218.338 77.36ZM209.818 79.76H208.818V80.76H209.818V79.76ZM209.218 74.36L210.177 74.0778L210.177 74.0778L209.218 74.36ZM207.178 71.36L206.59 72.1687L206.606 72.1807L206.623 72.192L207.178 71.36ZM197.818 73.04L197.061 72.3864L197.061 72.3864L197.818 73.04ZM194.218 79.76L193.266 79.4522L193.266 79.4522L194.218 79.76ZM192.298 88.28L193.288 88.4176L193.289 88.4139L192.298 88.28ZM193.018 120.2L192.211 120.791L192.234 120.822L192.259 120.851L193.018 120.2ZM196.618 122.48L196.35 123.444L196.381 123.452L196.412 123.459L196.618 122.48ZM204.898 122.96H205.898V121.96H204.898V122.96ZM204.898 128V129H205.898V128H204.898ZM170.218 128H171.218V122.96H170.218H169.218V128H170.218ZM170.218 122.96V123.96H170.578V122.96V121.96H170.218V122.96ZM170.578 122.96V123.96C172.488 123.96 174.221 123.753 175.765 123.324L175.498 122.36L175.23 121.396C173.895 121.767 172.347 121.96 170.578 121.96V122.96ZM175.498 122.36L175.752 123.327C177.48 122.872 178.881 121.947 179.904 120.551L179.098 119.96L178.291 119.369C177.555 120.373 176.555 121.048 175.243 121.393L175.498 122.36ZM179.098 119.96L179.922 120.527C180.966 119.007 181.418 116.892 181.418 114.32H180.418H179.418C179.418 116.708 178.989 118.353 178.274 119.393L179.098 119.96ZM180.418 114.32H181.418V76.88H180.418H179.418V114.32H180.418ZM180.418 76.88H181.418C181.418 74.3812 180.924 72.3341 179.737 70.9492L178.978 71.6L178.219 72.2508C178.952 73.1059 179.418 74.5788 179.418 76.88H180.418ZM178.978 71.6L179.784 71.0086C178.752 69.6007 177.333 68.7097 175.584 68.3414L175.378 69.32L175.172 70.2985C176.462 70.5703 177.444 71.1993 178.171 72.1914L178.978 71.6ZM175.378 69.32L175.645 68.3565C174.104 67.9284 172.413 67.72 170.578 67.72V68.72V69.72C172.263 69.72 173.771 69.9116 175.11 70.2835L175.378 69.32ZM170.578 68.72V67.72H170.218V68.72V69.72H170.578V68.72ZM170.218 68.72H171.218V63.68H170.218H169.218V68.72H170.218ZM170.218 63.68V64.68H188.698V63.68V62.68H170.218V63.68ZM188.698 63.68L187.716 63.8685L189.996 75.7485L190.978 75.56L191.96 75.3715L189.68 63.4915L188.698 63.68ZM190.978 75.56V76.56H191.578V75.56V74.56H190.978V75.56ZM191.578 75.56L192.495 75.9576C193.52 73.5931 194.62 71.4327 195.795 69.4745L194.938 68.96L194.08 68.4455C192.855 70.4873 191.716 72.7269 190.66 75.1624L191.578 75.56ZM194.938 68.96L195.795 69.4745C196.907 67.6212 198.381 66.1858 200.226 65.1525L199.738 64.28L199.249 63.4075C197.094 64.6142 195.368 66.2988 194.08 68.4455L194.938 68.96ZM199.738 64.28L200.252 65.1375C202.037 64.0666 204.594 63.48 208.018 63.48V62.48V61.48C204.402 61.48 201.439 62.0934 199.223 63.4225L199.738 64.28ZM208.018 62.48V63.48C212.341 63.48 215.323 64.2337 217.148 65.5674L217.738 64.76L218.328 63.9526C215.993 62.2463 212.495 61.48 208.018 61.48V62.48ZM217.738 64.76L217.162 65.5778C219.038 66.8976 219.978 68.7423 219.978 71.24H220.978H221.978C221.978 68.1376 220.758 65.6624 218.313 63.9422L217.738 64.76ZM220.978 71.24H219.978C219.978 73.4519 219.207 75.2185 217.665 76.6201L218.338 77.36L219.01 78.0999C220.989 76.3015 221.978 73.9881 221.978 71.24H220.978ZM218.338 77.36L217.648 76.6359C216.249 77.9679 213.733 78.76 209.818 78.76V79.76V80.76C213.903 80.76 217.066 79.9521 219.027 78.0841L218.338 77.36ZM209.818 79.76H210.818C210.818 77.473 210.615 75.5666 210.177 74.0778L209.218 74.36L208.258 74.6422C208.621 75.8734 208.818 77.567 208.818 79.76H209.818ZM209.218 74.36L210.177 74.0778C209.727 72.546 208.929 71.3259 207.733 70.5279L207.178 71.36L206.623 72.192C207.346 72.6741 207.909 73.454 208.258 74.6422L209.218 74.36ZM207.178 71.36L207.766 70.5513C206.652 69.7408 205.174 69.4 203.458 69.4V70.4V71.4C204.941 71.4 205.944 71.6992 206.59 72.1687L207.178 71.36ZM203.458 70.4V69.4C200.915 69.4 198.763 70.416 197.061 72.3864L197.818 73.04L198.575 73.6936C199.913 72.144 201.521 71.4 203.458 71.4V70.4ZM197.818 73.04L197.061 72.3864C195.436 74.2678 194.178 76.6334 193.266 79.4522L194.218 79.76L195.169 80.0678C196.017 77.4466 197.16 75.3322 198.575 73.6936L197.818 73.04ZM194.218 79.76L193.266 79.4522C192.367 82.2313 191.714 85.1297 191.307 88.1461L192.298 88.28L193.289 88.4139C193.681 85.5103 194.308 82.7287 195.169 80.0678L194.218 79.76ZM192.298 88.28L191.307 88.1424C190.902 91.0571 190.698 93.7042 190.698 96.08H191.698H192.698C192.698 93.8158 192.893 91.2628 193.288 88.4176L192.298 88.28ZM191.698 96.08H190.698V114.92H191.698H192.698V96.08H191.698ZM191.698 114.92H190.698C190.698 117.342 191.153 119.348 192.211 120.791L193.018 120.2L193.824 119.609C193.123 118.652 192.698 117.138 192.698 114.92H191.698ZM193.018 120.2L192.259 120.851C193.35 122.124 194.722 122.991 196.35 123.444L196.618 122.48L196.885 121.516C195.634 121.169 194.606 120.516 193.777 119.549L193.018 120.2ZM196.618 122.48L196.412 123.459C198.008 123.795 199.718 123.96 201.538 123.96V122.96V121.96C199.838 121.96 198.268 121.805 196.824 121.501L196.618 122.48ZM201.538 122.96V123.96H204.898V122.96V121.96H201.538V122.96ZM204.898 122.96H203.898V128H204.898H205.898V122.96H204.898ZM204.898 128V127H170.218V128V129H204.898V128ZM227.302 151.16V150.16H226.302V151.16H227.302ZM245.422 144.32L244.715 143.613L244.708 143.62L244.702 143.626L245.422 144.32ZM250.702 136.88L249.808 136.433L249.808 136.433L250.702 136.88ZM254.302 127.52L255.264 127.795L255.361 127.455L255.223 127.13L254.302 127.52ZM232.102 75.08L233.023 74.6901L233.021 74.6861L232.102 75.08ZM229.942 71.24L229.142 71.84L229.155 71.8569L229.168 71.8732L229.942 71.24ZM227.422 69.32L227.038 70.2431L227.071 70.2571L227.106 70.2687L227.422 69.32ZM223.222 68.72H222.222V69.72H223.222V68.72ZM223.222 63.68V62.68H222.222V63.68H223.222ZM252.022 63.68H253.022V62.68H252.022V63.68ZM252.022 68.72V69.72H253.022V68.72H252.022ZM246.262 70.16L246.854 70.9664L246.87 70.954L246.887 70.9409L246.262 70.16ZM244.702 76.52L245.678 76.3031L245.678 76.3031L244.702 76.52ZM245.422 78.92L244.482 79.2617L244.489 79.2807L244.497 79.2994L245.422 78.92ZM254.182 100.28L253.257 100.659L253.258 100.661L254.182 100.28ZM255.862 104.72L254.918 105.05L254.926 105.071L254.934 105.091L255.862 104.72ZM257.662 109.52L258.606 109.19L258.606 109.19L257.662 109.52ZM259.102 114.08L258.139 114.348L258.139 114.348L259.102 114.08ZM259.942 117.68L258.956 117.844L260.914 117.915L259.942 117.68ZM262.102 110.48L261.17 110.119L261.165 110.132L261.16 110.146L262.102 110.48ZM264.742 103.16L263.796 102.835L263.794 102.844L264.742 103.16ZM272.782 79.76L271.859 79.3754L271.847 79.4049L271.836 79.4351L272.782 79.76ZM273.622 77L274.606 77.1789L274.607 77.1717L274.609 77.1644L273.622 77ZM271.822 70.16L271.222 70.96L271.25 70.9808L271.279 70.9996L271.822 70.16ZM265.582 68.72H264.582V69.72H265.582V68.72ZM265.582 63.68V62.68H264.582V63.68H265.582ZM290.542 63.68H291.542V62.68H290.542V63.68ZM290.542 68.72V69.72H291.542V68.72H290.542ZM286.342 69.44L285.923 68.532L285.923 68.532L286.342 69.44ZM283.582 72.2L282.72 71.693L282.709 71.7123L282.698 71.7321L283.582 72.2ZM281.062 78.08L280.126 77.7289L280.122 77.7397L281.062 78.08ZM262.822 128.48L261.882 128.14L261.88 128.144L262.822 128.48ZM256.822 142.76L255.936 142.297L255.936 142.297L256.822 142.76ZM250.342 151.28L249.702 150.512L249.688 150.523L249.675 150.535L250.342 151.28ZM241.582 155.6L241.361 154.625L241.361 154.625L241.582 155.6ZM227.302 156.8H226.302V157.8H227.302V156.8ZM227.302 151.16V152.16C231.477 152.16 235.13 151.547 238.238 150.287L237.862 149.36L237.486 148.433C234.674 149.573 231.288 150.16 227.302 150.16V151.16ZM237.862 149.36L238.238 150.287C241.319 149.038 243.959 147.281 246.143 145.014L245.422 144.32L244.702 143.626C242.725 145.679 240.325 147.282 237.486 148.433L237.862 149.36ZM245.422 144.32L246.129 145.027C248.292 142.864 250.113 140.294 251.597 137.327L250.702 136.88L249.808 136.433C248.411 139.226 246.712 141.616 244.715 143.613L245.422 144.32ZM250.702 136.88L251.597 137.327C253.066 134.387 254.288 131.209 255.264 127.795L254.302 127.52L253.341 127.245C252.396 130.551 251.218 133.613 249.808 136.433L250.702 136.88ZM254.302 127.52L255.223 127.13L233.023 74.6902L232.102 75.08L231.181 75.4698L253.381 127.91L254.302 127.52ZM232.102 75.08L233.021 74.6861C232.284 72.9654 231.52 71.5896 230.716 70.6068L229.942 71.24L229.168 71.8732C229.804 72.6504 230.48 73.8346 231.183 75.4739L232.102 75.08ZM229.942 71.24L230.742 70.64C229.923 69.5482 228.925 68.7669 227.738 68.3713L227.422 69.32L227.106 70.2687C227.839 70.5131 228.521 71.0118 229.142 71.84L229.942 71.24ZM227.422 69.32L227.807 68.3969C226.677 67.9263 225.25 67.72 223.582 67.72V68.72V69.72C225.114 69.72 226.247 69.9137 227.038 70.2431L227.422 69.32ZM223.582 68.72V67.72H223.222V68.72V69.72H223.582V68.72ZM223.222 68.72H224.222V63.68H223.222H222.222V68.72H223.222ZM223.222 63.68V64.68H252.022V63.68V62.68H223.222V63.68ZM252.022 63.68H251.022V68.72H252.022H253.022V63.68H252.022ZM252.022 68.72V67.72H251.662V68.72V69.72H252.022V68.72ZM251.662 68.72V67.72C249.155 67.72 247.09 68.217 245.637 69.3791L246.262 70.16L246.887 70.9409C247.834 70.183 249.369 69.72 251.662 69.72V68.72ZM246.262 70.16L245.671 69.3536C244.131 70.4827 243.462 72.2804 243.462 74.48H244.462H245.462C245.462 72.6796 245.993 71.5973 246.854 70.9664L246.262 70.16ZM244.462 74.48H243.462C243.462 75.203 243.553 75.9562 243.726 76.7369L244.702 76.52L245.678 76.3031C245.532 75.6438 245.462 75.037 245.462 74.48H244.462ZM244.702 76.52L243.726 76.7369C243.898 77.5088 244.151 78.3513 244.482 79.2617L245.422 78.92L246.362 78.5783C246.053 77.7287 245.827 76.9712 245.678 76.3031L244.702 76.52ZM245.422 78.92L244.497 79.2994L253.257 100.659L254.182 100.28L255.107 99.9006L246.347 78.5406L245.422 78.92ZM254.182 100.28L253.258 100.661C253.81 102.002 254.363 103.465 254.918 105.05L255.862 104.72L256.806 104.39C256.241 102.775 255.675 101.278 255.107 99.8992L254.182 100.28ZM255.862 104.72L254.934 105.091C255.568 106.678 256.163 108.264 256.718 109.85L257.662 109.52L258.606 109.19C258.041 107.576 257.436 105.962 256.791 104.349L255.862 104.72ZM257.662 109.52L256.718 109.85C257.272 111.432 257.745 112.931 258.139 114.348L259.102 114.08L260.066 113.812C259.659 112.349 259.172 110.808 258.606 109.19L257.662 109.52ZM259.102 114.08L258.139 114.348C258.534 115.77 258.804 116.932 258.956 117.844L259.942 117.68L260.929 117.516C260.761 116.508 260.471 115.27 260.066 113.812L259.102 114.08ZM259.942 117.68L260.914 117.915C261.465 115.632 262.175 113.265 263.045 110.814L262.102 110.48L261.16 110.146C260.269 112.655 259.539 115.088 258.97 117.445L259.942 117.68ZM262.102 110.48L263.035 110.841C264 108.347 264.886 105.892 265.691 103.476L264.742 103.16L263.794 102.844C262.999 105.228 262.124 107.653 261.17 110.119L262.102 110.48ZM264.742 103.16L265.688 103.485L273.728 80.0849L272.782 79.76L271.836 79.4351L263.796 102.835L264.742 103.16ZM272.782 79.76L273.705 80.1446C274.129 79.1288 274.431 78.1397 274.606 77.1789L273.622 77L272.638 76.8211C272.493 77.6202 272.236 78.4712 271.859 79.3754L272.782 79.76ZM273.622 77L274.609 77.1644C274.773 76.175 274.862 75.3156 274.862 74.6H273.862H272.862C272.862 75.1644 272.791 75.905 272.636 76.8356L273.622 77ZM273.862 74.6H274.862C274.862 72.2896 274.091 70.4369 272.365 69.3204L271.822 70.16L271.279 70.9996C272.273 71.6431 272.862 72.7504 272.862 74.6H273.862ZM271.822 70.16L272.422 69.36C270.889 68.2099 268.67 67.72 265.942 67.72V68.72V69.72C268.494 69.72 270.196 70.1901 271.222 70.96L271.822 70.16ZM265.942 68.72V67.72H265.582V68.72V69.72H265.942V68.72ZM265.582 68.72H266.582V63.68H265.582H264.582V68.72H265.582ZM265.582 63.68V64.68H290.542V63.68V62.68H265.582V63.68ZM290.542 63.68H289.542V68.72H290.542H291.542V63.68H290.542ZM290.542 68.72V67.72H290.182V68.72V69.72H290.542V68.72ZM290.182 68.72V67.72C288.563 67.72 287.13 67.975 285.923 68.532L286.342 69.44L286.761 70.348C287.634 69.945 288.762 69.72 290.182 69.72V68.72ZM286.342 69.44L285.923 68.532C284.64 69.1242 283.586 70.2218 282.72 71.693L283.582 72.2L284.444 72.707C285.179 71.4581 285.964 70.7158 286.761 70.348L286.342 69.44ZM283.582 72.2L282.698 71.7321C281.949 73.1481 281.091 75.1545 280.126 77.7289L281.062 78.08L281.999 78.4311C282.953 75.8855 283.776 73.9719 284.466 72.6679L283.582 72.2ZM281.062 78.08L280.122 77.7397L261.882 128.14L262.822 128.48L263.763 128.82L282.003 78.4203L281.062 78.08ZM262.822 128.48L261.88 128.144C259.809 133.96 257.827 138.673 255.936 142.297L256.822 142.76L257.709 143.223C259.658 139.487 261.675 134.68 263.764 128.816L262.822 128.48ZM256.822 142.76L255.936 142.297C254.058 145.897 251.973 148.619 249.702 150.512L250.342 151.28L250.982 152.048C253.511 149.941 255.747 146.983 257.709 143.223L256.822 142.76ZM250.342 151.28L249.675 150.535C247.5 152.485 244.741 153.857 241.361 154.625L241.582 155.6L241.804 156.575C245.463 155.743 248.544 154.235 251.01 152.025L250.342 151.28ZM241.582 155.6L241.361 154.625C237.938 155.403 233.619 155.8 228.382 155.8V156.8V157.8C233.706 157.8 238.186 157.397 241.804 156.575L241.582 155.6ZM228.382 156.8V155.8H227.302V156.8V157.8H228.382V156.8ZM227.302 156.8H228.302V151.16H227.302H226.302V156.8H227.302ZM306.074 125.12L305.356 125.817L305.367 125.827L305.377 125.837L306.074 125.12ZM301.994 70.52H302.994V69.52H301.994V70.52ZM292.874 70.52H291.874V71.52H292.874V70.52ZM292.874 65.72V64.72H291.874V65.72H292.874ZM297.674 64.88L297.977 65.8329L297.996 65.8267L298.015 65.8198L297.674 64.88ZM302.234 61.88L301.507 61.1934L301.506 61.1946L302.234 61.88ZM305.594 56.6L304.673 56.2104L304.673 56.2104L305.594 56.6ZM307.754 48.92V47.92H306.921L306.77 48.7388L307.754 48.92ZM313.274 48.92H314.274V47.92H313.274V48.92ZM313.274 63.68H312.274V64.68H313.274V63.68ZM328.994 63.68H329.994V62.68H328.994V63.68ZM328.994 70.52V71.52H329.994V70.52H328.994ZM313.274 70.52V69.52H312.274V70.52H313.274ZM315.794 119.96L315.041 120.619L315.041 120.619L315.794 119.96ZM326.354 122.6L326.222 121.609L326.222 121.609L326.354 122.6ZM330.074 122H331.074V120.795L329.889 121.017L330.074 122ZM330.074 127.28L330.493 128.188L331.074 127.92V127.28H330.074ZM325.394 128.6L325.583 129.582L325.583 129.582L325.394 128.6ZM319.394 129.2V128.2C313.433 128.2 309.303 126.863 306.771 124.403L306.074 125.12L305.377 125.837C308.445 128.817 313.194 130.2 319.394 130.2V129.2ZM306.074 125.12L306.791 124.423C304.349 121.909 302.994 117.402 302.994 110.6H301.994H300.994C300.994 117.558 302.359 122.731 305.356 125.817L306.074 125.12ZM301.994 110.6H302.994V70.52H301.994H300.994V110.6H301.994ZM301.994 70.52V69.52H292.874V70.52V71.52H301.994V70.52ZM292.874 70.52H293.874V65.72H292.874H291.874V70.52H292.874ZM292.874 65.72V66.72C294.441 66.72 296.145 66.4158 297.977 65.8329L297.674 64.88L297.371 63.9271C295.682 64.4642 294.187 64.72 292.874 64.72V65.72ZM297.674 64.88L298.015 65.8198C299.922 65.1265 301.574 64.0395 302.962 62.5654L302.234 61.88L301.506 61.1946C300.333 62.4405 298.945 63.3535 297.332 63.9402L297.674 64.88ZM302.234 61.88L302.961 62.5666C304.413 61.0287 305.595 59.1642 306.515 56.9896L305.594 56.6L304.673 56.2104C303.833 58.1958 302.774 59.8513 301.507 61.1934L302.234 61.88ZM305.594 56.6L306.515 56.9896C307.431 54.8232 308.168 52.1885 308.737 49.1012L307.754 48.92L306.77 48.7388C306.219 51.7315 305.516 54.2168 304.673 56.2104L305.594 56.6ZM307.754 48.92V49.92H313.274V48.92V47.92H307.754V48.92ZM313.274 48.92H312.274V63.68H313.274H314.274V48.92H313.274ZM313.274 63.68V64.68H328.994V63.68V62.68H313.274V63.68ZM328.994 63.68H327.994V70.52H328.994H329.994V63.68H328.994ZM328.994 70.52V69.52H313.274V70.52V71.52H328.994V70.52ZM313.274 70.52H312.274V110.96H313.274H314.274V70.52H313.274ZM313.274 110.96H312.274C312.274 115.145 313.13 118.434 315.041 120.619L315.794 119.96L316.546 119.301C315.097 117.646 314.274 114.935 314.274 110.96H313.274ZM315.794 119.96L315.041 120.619C316.925 122.771 319.407 123.84 322.394 123.84V122.84V121.84C319.941 121.84 318.023 120.989 316.546 119.301L315.794 119.96ZM322.394 122.84V123.84C323.87 123.84 325.235 123.758 326.486 123.591L326.354 122.6L326.222 121.609C325.073 121.762 323.798 121.84 322.394 121.84V122.84ZM326.354 122.6L326.486 123.591C327.705 123.429 328.962 123.226 330.258 122.983L330.074 122L329.889 121.017C328.625 121.254 327.403 121.451 326.222 121.609L326.354 122.6ZM330.074 122H329.074V127.28H330.074H331.074V122H330.074ZM330.074 127.28L329.655 126.372C328.726 126.801 327.26 127.223 325.205 127.618L325.394 128.6L325.583 129.582C327.687 129.177 329.342 128.719 330.493 128.188L330.074 127.28ZM325.394 128.6L325.205 127.618C323.181 128.007 321.244 128.2 319.394 128.2V129.2V130.2C321.383 130.2 323.447 129.993 325.583 129.582L325.394 128.6ZM335.541 128H334.541V129H335.541V128ZM335.541 122.96V121.96H334.541V122.96H335.541ZM341.901 122.48L342.118 123.456L342.137 123.452L342.156 123.447L341.901 122.48ZM345.501 120.2L344.72 119.575L344.715 119.582L345.501 120.2ZM345.501 71.6L344.695 72.1914L344.717 72.222L344.742 72.2508L345.501 71.6ZM341.901 69.32L341.634 70.2835L341.664 70.292L341.695 70.2985L341.901 69.32ZM336.741 68.72H335.741V69.72H336.741V68.72ZM336.741 63.68V62.68H335.741V63.68H336.741ZM358.221 63.68H359.221V62.68H358.221V63.68ZM359.541 119.96L358.717 120.527L358.726 120.539L358.735 120.551L359.541 119.96ZM363.141 122.36L363.396 121.393L363.396 121.393L363.141 122.36ZM369.621 122.96H370.621V121.96H369.621V122.96ZM369.621 128V129H370.621V128H369.621ZM347.181 50L346.523 50.7526L346.534 50.7624L346.546 50.7719L347.181 50ZM347.181 38.48L347.812 39.2561L347.817 39.2519L347.181 38.48ZM356.901 38.48L356.266 39.2519L356.279 39.2634L356.294 39.2744L356.901 38.48ZM356.901 50L356.266 49.2281L356.266 49.2281L356.901 50ZM335.541 128H336.541V122.96H335.541H334.541V128H335.541ZM335.541 122.96V123.96H337.101V122.96V121.96H335.541V122.96ZM337.101 122.96V123.96C338.921 123.96 340.595 123.795 342.118 123.456L341.901 122.48L341.684 121.504C340.328 121.805 338.802 121.96 337.101 121.96V122.96ZM341.901 122.48L342.156 123.447C343.863 122.998 345.259 122.127 346.288 120.818L345.501 120.2L344.715 119.582C343.983 120.513 342.979 121.162 341.647 121.513L341.901 122.48ZM345.501 120.2L346.282 120.825C347.44 119.377 347.941 117.356 347.941 114.92H346.941H345.941C345.941 117.124 345.482 118.623 344.72 119.575L345.501 120.2ZM346.941 114.92H347.941V76.88H346.941H345.941V114.92H346.941ZM346.941 76.88H347.941C347.941 74.3812 347.448 72.3341 346.261 70.9492L345.501 71.6L344.742 72.2508C345.475 73.1059 345.941 74.5788 345.941 76.88H346.941ZM345.501 71.6L346.308 71.0086C345.275 69.6007 343.857 68.7097 342.107 68.3414L341.901 69.32L341.695 70.2985C342.986 70.5703 343.967 71.1993 344.695 72.1914L345.501 71.6ZM341.901 69.32L342.169 68.3565C340.628 67.9284 338.936 67.72 337.101 67.72V68.72V69.72C338.786 69.72 340.295 69.9116 341.634 70.2835L341.901 69.32ZM337.101 68.72V67.72H336.741V68.72V69.72H337.101V68.72ZM336.741 68.72H337.741V63.68H336.741H335.741V68.72H336.741ZM336.741 63.68V64.68H358.221V63.68V62.68H336.741V63.68ZM358.221 63.68H357.221V114.32H358.221H359.221V63.68H358.221ZM358.221 114.32H357.221C357.221 116.892 357.673 119.007 358.717 120.527L359.541 119.96L360.365 119.393C359.65 118.353 359.221 116.708 359.221 114.32H358.221ZM359.541 119.96L358.735 120.551C359.758 121.947 361.159 122.872 362.887 123.327L363.141 122.36L363.396 121.393C362.084 121.048 361.084 120.373 360.348 119.369L359.541 119.96ZM363.141 122.36L362.887 123.327C364.499 123.751 366.225 123.96 368.061 123.96V122.96V121.96C366.377 121.96 364.823 121.769 363.396 121.393L363.141 122.36ZM368.061 122.96V123.96H369.621V122.96V121.96H368.061V122.96ZM369.621 122.96H368.621V128H369.621H370.621V122.96H369.621ZM369.621 128V127H335.541V128V129H369.621V128ZM352.101 51.68V50.68C350.391 50.68 348.981 50.187 347.817 49.2281L347.181 50L346.546 50.7719C348.101 52.053 349.972 52.68 352.101 52.68V51.68ZM347.181 50L347.84 49.2474C346.878 48.4061 346.261 46.8415 346.261 44.24H345.261H344.261C344.261 47.0785 344.924 49.3539 346.523 50.7526L347.181 50ZM345.261 44.24H346.261C346.261 41.5375 346.888 40.0071 347.812 39.2561L347.181 38.48L346.551 37.7039C344.915 39.0329 344.261 41.3425 344.261 44.24H345.261ZM347.181 38.48L347.817 39.2519C348.981 38.293 350.391 37.8 352.101 37.8V36.8V35.8C349.972 35.8 348.101 36.427 346.546 37.7081L347.181 38.48ZM352.101 36.8V37.8C353.72 37.8 355.093 38.2863 356.266 39.2519L356.901 38.48L357.537 37.7081C355.989 36.4337 354.162 35.8 352.101 35.8V36.8ZM356.901 38.48L356.294 39.2744C357.283 40.0311 357.941 41.5544 357.941 44.24H358.941H359.941C359.941 41.3256 359.239 39.0089 357.509 37.6856L356.901 38.48ZM358.941 44.24H357.941C357.941 46.825 357.293 48.3821 356.266 49.2281L356.901 50L357.537 50.7719C359.23 49.3779 359.941 47.095 359.941 44.24H358.941ZM356.901 50L356.266 49.2281C355.093 50.1937 353.72 50.68 352.101 50.68V51.68V52.68C354.162 52.68 355.989 52.0463 357.537 50.7719L356.901 50ZM374.579 128H373.579V129H374.579V128ZM374.579 122.96V121.96H373.579V122.96H374.579ZM380.939 122.36L380.657 121.401L380.657 121.401L380.939 122.36ZM384.179 119.96L385.011 120.515L385.019 120.502L385.027 120.49L384.179 119.96ZM384.179 71.6L383.347 72.1547L383.356 72.1681L383.365 72.1812L384.179 71.6ZM380.819 69.32L380.537 70.2794L380.569 70.2889L380.602 70.2962L380.819 69.32ZM375.779 68.72H374.779V69.72H375.779V68.72ZM375.779 63.68V62.68H374.779V63.68H375.779ZM394.619 63.68L395.606 63.5215L395.471 62.68H394.619V63.68ZM396.179 73.4L395.191 73.5585L395.326 74.4H396.179V73.4ZM396.779 73.4V74.4H397.382L397.664 73.8657L396.779 73.4ZM401.939 66.56L402.576 67.331L402.585 67.3229L402.595 67.3146L401.939 66.56ZM407.939 63.32L407.688 62.352L407.688 62.352L407.939 63.32ZM422.099 63.56L421.793 64.5121L421.802 64.5151L422.099 63.56ZM428.219 67.04L427.546 67.7799L427.555 67.7885L427.565 67.7968L428.219 67.04ZM432.299 73.4L431.356 73.7328L431.591 74.4H432.299V73.4ZM433.259 73.4V74.4H433.862L434.144 73.8657L433.259 73.4ZM438.539 66.56L439.159 67.3441L439.163 67.3409L438.539 66.56ZM444.899 63.32L444.664 62.3479L444.656 62.3499L444.899 63.32ZM466.499 68.12L465.761 68.7951L465.768 68.8029L466.499 68.12ZM472.859 119.96L472.011 120.49L472.019 120.502L472.027 120.515L472.859 119.96ZM476.099 122.36L475.817 123.319L475.824 123.321L475.831 123.324L476.099 122.36ZM481.259 122.96H482.259V121.96H481.259V122.96ZM481.259 128V129H482.259V128H481.259ZM460.379 128H459.379V129H460.379V128ZM457.499 74.48L456.656 75.0184L456.661 75.0266L456.667 75.0347L457.499 74.48ZM439.859 72.68L440.499 73.4482L440.502 73.4457L439.859 72.68ZM435.659 79.16L434.707 78.8522L434.703 78.865L434.699 78.8778L435.659 79.16ZM435.659 119.96L434.811 120.49L434.819 120.502L434.827 120.515L435.659 119.96ZM438.899 122.36L438.617 123.319L438.624 123.321L438.631 123.324L438.899 122.36ZM444.059 122.96H445.059V121.96H444.059V122.96ZM444.059 128V129H445.059V128H444.059ZM423.179 128H422.179V129H423.179V128ZM420.299 74.48L419.456 75.0184L419.461 75.0266L419.467 75.0347L420.299 74.48ZM402.299 72.92L402.959 73.6707L402.961 73.669L402.299 72.92ZM397.979 80L397.02 79.715L397.02 79.715L397.979 80ZM397.979 120.2L397.172 120.791L397.195 120.822L397.219 120.851L397.979 120.2ZM401.579 122.48L401.311 123.444L401.342 123.452L401.373 123.459L401.579 122.48ZM406.859 122.96H407.859V121.96H406.859V122.96ZM406.859 128V129H407.859V128H406.859ZM374.579 128H375.579V122.96H374.579H373.579V128H374.579ZM374.579 122.96V123.96H376.139V122.96V121.96H374.579V122.96ZM376.139 122.96V123.96C378.047 123.96 379.747 123.753 381.221 123.319L380.939 122.36L380.657 121.401C379.411 121.767 377.91 121.96 376.139 121.96V122.96ZM380.939 122.36L381.221 123.319C382.81 122.852 384.083 121.906 385.011 120.515L384.179 119.96L383.347 119.405C382.674 120.414 381.787 121.068 380.657 121.401L380.939 122.36ZM384.179 119.96L385.027 120.49C385.971 118.979 386.379 116.879 386.379 114.32H385.379H384.379C384.379 116.721 383.986 118.381 383.331 119.43L384.179 119.96ZM385.379 114.32H386.379V76.88H385.379H384.379V114.32H385.379ZM385.379 76.88H386.379C386.379 74.4091 385.975 72.3936 384.992 71.0188L384.179 71.6L383.365 72.1812C383.983 73.0464 384.379 74.5509 384.379 76.88H385.379ZM384.179 71.6L385.011 71.0453C384.064 69.6254 382.721 68.7183 381.036 68.3438L380.819 69.32L380.602 70.2962C381.797 70.5617 382.693 71.1746 383.347 72.1547L384.179 71.6ZM380.819 69.32L381.101 68.3606C379.63 67.9281 377.972 67.72 376.139 67.72V68.72V69.72C377.825 69.72 379.287 69.9119 380.537 70.2794L380.819 69.32ZM376.139 68.72V67.72H375.779V68.72V69.72H376.139V68.72ZM375.779 68.72H376.779V63.68H375.779H374.779V68.72H375.779ZM375.779 63.68V64.68H394.619V63.68V62.68H375.779V63.68ZM394.619 63.68L393.631 63.8385L395.191 73.5585L396.179 73.4L397.166 73.2415L395.606 63.5215L394.619 63.68ZM396.179 73.4V74.4H396.779V73.4V72.4H396.179V73.4ZM396.779 73.4L397.664 73.8657C399.227 70.8955 400.872 68.7382 402.576 67.331L401.939 66.56L401.302 65.789C399.325 67.4218 397.531 69.8245 395.894 72.9343L396.779 73.4ZM401.939 66.56L402.595 67.3146C404.329 65.8065 406.193 64.8057 408.19 64.288L407.939 63.32L407.688 62.352C405.365 62.9543 403.228 64.1135 401.283 65.8054L401.939 66.56ZM407.939 63.32L408.19 64.288C410.259 63.7515 412.494 63.48 414.899 63.48V62.48V61.48C412.343 61.48 409.938 61.7685 407.688 62.352L407.939 63.32ZM414.899 62.48V63.48C417.364 63.48 419.66 63.8265 421.793 64.512L422.099 63.56L422.405 62.608C420.058 61.8535 417.554 61.48 414.899 61.48V62.48ZM422.099 63.56L421.802 64.5151C423.986 65.1927 425.897 66.2804 427.546 67.7799L428.219 67.04L428.891 66.3001C427.021 64.5996 424.852 63.3673 422.395 62.6049L422.099 63.56ZM428.219 67.04L427.565 67.7968C429.165 69.1788 430.44 71.1379 431.356 73.7328L432.299 73.4L433.242 73.0672C432.238 70.2221 430.792 67.9412 428.872 66.2832L428.219 67.04ZM432.299 73.4V74.4H433.259V73.4V72.4H432.299V73.4ZM433.259 73.4L434.144 73.8657C435.703 70.9028 437.383 68.7501 439.159 67.344L438.539 66.56L437.918 65.776C435.854 67.4099 434.014 69.8172 432.374 72.9343L433.259 73.4ZM438.539 66.56L439.163 67.3409C441.064 65.8208 443.055 64.8116 445.141 64.2901L444.899 63.32L444.656 62.3499C442.262 62.9484 440.014 64.0992 437.914 65.7791L438.539 66.56ZM444.899 63.32L445.133 64.2921C447.374 63.7513 449.695 63.48 452.099 63.48V62.48V61.48C449.543 61.48 447.064 61.7687 444.664 62.3479L444.899 63.32ZM452.099 62.48V63.48C458.042 63.48 462.549 65.2847 465.761 68.795L466.499 68.12L467.237 67.445C463.568 63.4353 458.476 61.48 452.099 61.48V62.48ZM466.499 68.12L465.768 68.8029C468.953 72.2104 470.659 77.8614 470.659 86H471.659H472.659C472.659 77.6586 470.924 71.3896 467.229 67.4371L466.499 68.12ZM471.659 86H470.659V114.32H471.659H472.659V86H471.659ZM471.659 114.32H470.659C470.659 116.879 471.066 118.979 472.011 120.49L472.859 119.96L473.707 119.43C473.051 118.381 472.659 116.721 472.659 114.32H471.659ZM472.859 119.96L472.027 120.515C472.954 121.906 474.227 122.852 475.817 123.319L476.099 122.36L476.381 121.401C475.25 121.068 474.363 120.414 473.691 119.405L472.859 119.96ZM476.099 122.36L475.831 123.324C477.372 123.752 479.064 123.96 480.899 123.96V122.96V121.96C479.214 121.96 477.705 121.768 476.366 121.396L476.099 122.36ZM480.899 122.96V123.96H481.259V122.96V121.96H480.899V122.96ZM481.259 122.96H480.259V128H481.259H482.259V122.96H481.259ZM481.259 128V127H460.379V128V129H481.259V128ZM460.379 128H461.379V86.6H460.379H459.379V128H460.379ZM460.379 86.6H461.379C461.379 81.2956 460.402 77.0328 458.331 73.9253L457.499 74.48L456.667 75.0347C458.435 77.6872 459.379 81.5044 459.379 86.6H460.379ZM457.499 74.48L458.341 73.9416C456.255 70.676 452.625 69.16 447.779 69.16V70.16V71.16C452.213 71.16 455.062 72.524 456.656 75.0184L457.499 74.48ZM447.779 70.16V69.16C444.325 69.16 441.438 70.0474 439.216 71.9143L439.859 72.68L440.502 73.4457C442.279 71.9526 444.672 71.16 447.779 71.16V70.16ZM439.859 72.68L439.219 71.9118C437.133 73.6494 435.637 75.9789 434.707 78.8522L435.659 79.16L436.61 79.4678C437.441 76.9011 438.744 74.9106 440.499 73.4482L439.859 72.68ZM435.659 79.16L434.699 78.8778C433.869 81.7004 433.459 84.7566 433.459 88.04H434.459H435.459C435.459 84.9234 435.848 82.0596 436.618 79.4422L435.659 79.16ZM434.459 88.04H433.459V114.32H434.459H435.459V88.04H434.459ZM434.459 114.32H433.459C433.459 116.879 433.866 118.979 434.811 120.49L435.659 119.96L436.507 119.43C435.851 118.381 435.459 116.721 435.459 114.32H434.459ZM435.659 119.96L434.827 120.515C435.754 121.906 437.027 122.852 438.617 123.319L438.899 122.36L439.181 121.401C438.05 121.068 437.163 120.414 436.491 119.405L435.659 119.96ZM438.899 122.36L438.631 123.324C440.172 123.752 441.864 123.96 443.699 123.96V122.96V121.96C442.014 121.96 440.505 121.768 439.166 121.396L438.899 122.36ZM443.699 122.96V123.96H444.059V122.96V121.96H443.699V122.96ZM444.059 122.96H443.059V128H444.059H445.059V122.96H444.059ZM444.059 128V127H423.179V128V129H444.059V128ZM423.179 128H424.179V86.6H423.179H422.179V128H423.179ZM423.179 86.6H424.179C424.179 81.2956 423.202 77.0328 421.131 73.9253L420.299 74.48L419.467 75.0347C421.235 77.6872 422.179 81.5044 422.179 86.6H423.179ZM420.299 74.48L421.141 73.9416C419.055 70.676 415.425 69.16 410.579 69.16V70.16V71.16C415.013 71.16 417.862 72.524 419.456 75.0184L420.299 74.48ZM410.579 70.16V69.16C406.955 69.16 403.94 70.1332 401.636 72.171L402.299 72.92L402.961 73.669C404.818 72.0268 407.322 71.16 410.579 71.16V70.16ZM402.299 72.92L401.638 72.1693C399.476 74.0722 397.945 76.6041 397.02 79.715L397.979 80L398.937 80.285C399.772 77.4759 401.122 75.2878 402.959 73.6707L402.299 72.92ZM397.979 80L397.02 79.715C396.11 82.7774 395.659 86.0744 395.659 89.6H396.659H397.659C397.659 86.2456 398.088 83.1426 398.937 80.285L397.979 80ZM396.659 89.6H395.659V114.92H396.659H397.659V89.6H396.659ZM396.659 114.92H395.659C395.659 117.342 396.114 119.348 397.172 120.791L397.979 120.2L398.785 119.609C398.084 118.652 397.659 117.138 397.659 114.92H396.659ZM397.979 120.2L397.219 120.851C398.31 122.124 399.683 122.991 401.311 123.444L401.579 122.48L401.846 121.516C400.595 121.169 399.567 120.516 398.738 119.549L397.979 120.2ZM401.579 122.48L401.373 123.459C402.969 123.795 404.679 123.96 406.499 123.96V122.96V121.96C404.799 121.96 403.229 121.805 401.785 121.501L401.579 122.48ZM406.499 122.96V123.96H406.859V122.96V121.96H406.499V122.96ZM406.859 122.96H405.859V128H406.859H407.859V122.96H406.859ZM406.859 128V127H374.579V128V129H406.859V128ZM498.576 120.56L497.813 121.206L497.818 121.213L498.576 120.56ZM498.216 71L497.442 70.3674L497.442 70.3674L498.216 71ZM536.136 69.68L535.399 70.3557L535.405 70.3623L536.136 69.68ZM542.856 96.68V97.68H543.856V96.68H542.856ZM502.896 96.68V95.68H501.868L501.897 96.7074L502.896 96.68ZM505.176 110.96L504.238 111.307L504.238 111.307L505.176 110.96ZM511.056 119.12L510.49 119.944L510.504 119.954L510.519 119.964L511.056 119.12ZM528.216 120.44L527.88 119.498L527.869 119.502L528.216 120.44ZM533.976 117.32L533.37 116.525L533.361 116.532L533.352 116.539L533.976 117.32ZM537.936 113.24L538.33 112.321L537.566 111.993L537.104 112.685L537.936 113.24ZM539.496 114.68L538.664 115.235L538.664 115.235L539.496 114.68ZM537.936 122.48L538.707 123.117L538.707 123.117L537.936 122.48ZM530.976 127.28L531.356 128.205L531.366 128.201L531.376 128.197L530.976 127.28ZM530.736 90.2V91.2H531.736V90.2H530.736ZM529.416 79.04L528.446 79.2825L528.449 79.2939L528.452 79.3052L529.416 79.04ZM525.336 71.6L526.012 70.8628L526.012 70.8628L525.336 71.6ZM510.096 71.48L510.721 72.2609L510.725 72.2579L510.096 71.48ZM505.296 78.56L504.363 78.201L504.359 78.2115L504.355 78.2221L505.296 78.56ZM503.136 90.2L502.139 90.1312L502.065 91.2H503.136V90.2ZM519.096 129.2V128.2C510.62 128.2 504.075 125.413 499.334 119.907L498.576 120.56L497.818 121.213C502.997 127.227 510.133 130.2 519.096 130.2V129.2ZM498.576 120.56L499.339 119.914C494.661 114.392 492.256 106.572 492.256 96.32H491.256H490.256C490.256 106.868 492.731 115.208 497.813 121.206L498.576 120.56ZM491.256 96.32H492.256C492.256 85.2347 494.556 77.0612 498.991 71.6326L498.216 71L497.442 70.3674C492.596 76.2988 490.256 85.0053 490.256 96.32H491.256ZM498.216 71L498.991 71.6326C503.41 66.223 509.664 63.48 517.896 63.48V62.48V61.48C509.169 61.48 502.303 64.417 497.442 70.3674L498.216 71ZM517.896 62.48V63.48C525.434 63.48 531.225 65.8018 535.399 70.3557L536.136 69.68L536.873 69.0043C532.248 63.9582 525.878 61.48 517.896 61.48V62.48ZM536.136 69.68L535.405 70.3623C539.648 74.9084 541.856 81.7803 541.856 91.16H542.856H543.856C543.856 81.4997 541.584 74.0516 536.867 68.9977L536.136 69.68ZM542.856 91.16H541.856V96.68H542.856H543.856V91.16H542.856ZM542.856 96.68V95.68H502.896V96.68V97.68H542.856V96.68ZM502.896 96.68L501.897 96.7074C502.058 102.608 502.827 107.487 504.238 111.307L505.176 110.96L506.114 110.613C504.806 107.073 504.054 102.432 503.896 96.6526L502.896 96.68ZM505.176 110.96L504.238 111.307C505.651 115.129 507.72 118.04 510.49 119.944L511.056 119.12L511.623 118.296C509.273 116.68 507.422 114.151 506.114 110.613L505.176 110.96ZM511.056 119.12L510.519 119.964C513.353 121.767 516.789 122.64 520.776 122.64V121.64V120.64C517.083 120.64 514.04 119.833 511.593 118.276L511.056 119.12ZM520.776 121.64V122.64C523.67 122.64 526.271 122.227 528.564 121.378L528.216 120.44L527.869 119.502C525.841 120.253 523.482 120.64 520.776 120.64V121.64ZM528.216 120.44L528.553 121.382C530.881 120.55 532.902 119.46 534.601 118.101L533.976 117.32L533.352 116.539C531.851 117.74 530.032 118.73 527.88 119.498L528.216 120.44ZM533.976 117.32L534.582 118.115C536.332 116.783 537.735 115.345 538.768 113.795L537.936 113.24L537.104 112.685C536.218 114.015 534.981 115.297 533.37 116.525L533.976 117.32ZM537.936 113.24L537.542 114.159C537.864 114.297 538.249 114.611 538.664 115.235L539.496 114.68L540.328 114.125C539.784 113.309 539.129 112.663 538.33 112.321L537.936 113.24ZM539.496 114.68L538.664 115.235C539.014 115.76 539.216 116.437 539.216 117.32H540.216H541.216C541.216 116.123 540.938 115.04 540.328 114.125L539.496 114.68ZM540.216 117.32H539.216C539.216 118.597 538.607 120.097 537.165 121.843L537.936 122.48L538.707 123.117C540.305 121.183 541.216 119.243 541.216 117.32H540.216ZM537.936 122.48L537.165 121.843C535.779 123.522 533.61 125.041 530.577 126.363L530.976 127.28L531.376 128.197C534.583 126.799 537.054 125.118 538.707 123.117L537.936 122.48ZM530.976 127.28L530.597 126.355C527.637 127.569 523.817 128.2 519.096 128.2V129.2V130.2C523.976 130.2 528.076 129.551 531.356 128.205L530.976 127.28ZM530.736 90.2H531.736C531.736 85.8939 531.29 82.0813 530.38 78.7748L529.416 79.04L528.452 79.3052C529.303 82.3987 529.736 86.0261 529.736 90.2H530.736ZM529.416 79.04L530.386 78.7975C529.551 75.4578 528.111 72.7866 526.012 70.8628L525.336 71.6L524.661 72.3372C526.402 73.9334 527.681 76.2222 528.446 79.2825L529.416 79.04ZM525.336 71.6L526.012 70.8628C523.868 68.8972 521.046 67.96 517.656 67.96V68.96V69.96C520.666 69.96 522.965 70.7828 524.661 72.3372L525.336 71.6ZM517.656 68.96V67.96C514.494 67.96 511.745 68.8628 509.468 70.7021L510.096 71.48L510.725 72.2579C512.607 70.7372 514.899 69.96 517.656 69.96V68.96ZM510.096 71.48L509.472 70.6991C507.297 72.4388 505.608 74.9647 504.363 78.201L505.296 78.56L506.23 78.919C507.385 75.9152 508.895 73.7212 510.721 72.2609L510.096 71.48ZM505.296 78.56L504.355 78.2221C503.194 81.4558 502.463 85.4332 502.139 90.1312L503.136 90.2L504.134 90.2688C504.45 85.6868 505.158 81.9042 506.237 78.8979L505.296 78.56ZM503.136 90.2V91.2H530.736V90.2V89.2H503.136V90.2Z" fill="black" mask="url(#path-1-outside-1_1_6)"/>
<rect x="0.5" y="9.5" width="99" height="141" stroke="black"/>
<mask id="path-4-outside-2_1_6" maskUnits="userSpaceOnUse" x="4" y="47" width="91" height="84" fill="black">
<rect fill="white" x="4" y="47" width="91" height="84"/>
<path d="M25.2 129.2C21.2 129.2 17.72 128.72 14.76 127.76C11.8 126.8 9.48 125.4 7.8 123.56C6.2 121.64 5.4 119.28 5.4 116.48C5.4 114.32 5.84 112.64 6.72 111.44C7.6 110.24 8.6 109.4 9.72 108.92C10.92 108.44 12 108.2 12.96 108.2C12.96 111 13.36 113.56 14.16 115.88C14.96 118.2 16.32 120.04 18.24 121.4C20.16 122.76 22.72 123.44 25.92 123.44C30.16 123.44 33.4 122.44 35.64 120.44C37.96 118.36 39.12 115.72 39.12 112.52C39.12 110.52 38.68 108.88 37.8 107.6C37 106.32 35.52 105.08 33.36 103.88C31.28 102.6 28.28 101.12 24.36 99.44C20.28 97.6 16.88 95.84 14.16 94.16C11.52 92.4 9.52 90.4 8.16 88.16C6.88 85.84 6.24 82.96 6.24 79.52C6.24 74.08 8.28 69.92 12.36 67.04C16.52 64.08 22 62.6 28.8 62.6C32.64 62.6 35.84 63.12 38.4 64.16C41.04 65.12 43 66.44 44.28 68.12C45.64 69.8 46.32 71.64 46.32 73.64C46.32 75.8 45.56 77.56 44.04 78.92C42.6 80.2 40.48 80.84 37.68 80.84C37.68 76.84 36.84 73.72 35.16 71.48C33.48 69.24 30.88 68.12 27.36 68.12C24.64 68.12 22.44 68.52 20.76 69.32C19.08 70.12 17.84 71.24 17.04 72.68C16.32 74.12 15.96 75.8 15.96 77.72C15.96 79.72 16.44 81.4 17.4 82.76C18.44 84.12 20.04 85.4 22.2 86.6C24.44 87.72 27.32 89 30.84 90.44C35.08 92.2 38.52 93.96 41.16 95.72C43.8 97.48 45.72 99.52 46.92 101.84C48.2 104.16 48.84 107 48.84 110.36C48.84 116.6 46.68 121.32 42.36 124.52C38.04 127.64 32.32 129.2 25.2 129.2ZM82.9406 129.2C76.8606 129.2 72.4206 127.84 69.6206 125.12C66.9006 122.32 65.5406 117.48 65.5406 110.6V70.52H56.4206V65.72C57.8606 65.72 59.4606 65.44 61.2206 64.88C62.9806 64.24 64.5006 63.24 65.7806 61.88C67.1406 60.44 68.2606 58.68 69.1406 56.6C70.0206 54.52 70.7406 51.96 71.3006 48.92H76.8206V63.68H92.5406V70.52H76.8206V110.96C76.8206 115.04 77.6606 118.04 79.3406 119.96C81.0206 121.88 83.2206 122.84 85.9406 122.84C87.3806 122.84 88.7006 122.76 89.9006 122.6C91.1006 122.44 92.3406 122.24 93.6206 122V127.28C92.5806 127.76 91.0206 128.2 88.9406 128.6C86.8606 129 84.8606 129.2 82.9406 129.2Z"/>
</mask>
<path d="M14.76 127.76L14.4515 128.711L14.4515 128.711L14.76 127.76ZM7.8 123.56L7.03178 124.2L7.04626 124.218L7.06152 124.234L7.8 123.56ZM6.72 111.44L5.9136 110.849L5.9136 110.849L6.72 111.44ZM9.72 108.92L9.34861 107.992L9.33729 107.996L9.32608 108.001L9.72 108.92ZM12.96 108.2H13.96V107.2H12.96V108.2ZM14.16 115.88L15.1054 115.554L15.1054 115.554L14.16 115.88ZM35.64 120.44L36.306 121.186L36.3075 121.185L35.64 120.44ZM37.8 107.6L36.952 108.13L36.9636 108.149L36.976 108.167L37.8 107.6ZM33.36 103.88L32.8359 104.732L32.8549 104.743L32.8744 104.754L33.36 103.88ZM24.36 99.44L23.9489 100.352L23.9575 100.355L23.9661 100.359L24.36 99.44ZM14.16 94.16L13.6053 94.992L13.6197 95.0017L13.6345 95.0108L14.16 94.16ZM8.16 88.16L7.28442 88.6431L7.29445 88.6612L7.30521 88.679L8.16 88.16ZM12.36 67.04L12.9367 67.857L12.9398 67.8548L12.36 67.04ZM38.4 64.16L38.0236 65.0865L38.0408 65.0935L38.0583 65.0998L38.4 64.16ZM44.28 68.12L43.4846 68.726L43.4935 68.7378L43.5028 68.7492L44.28 68.12ZM44.04 78.92L44.7044 79.6674L44.7068 79.6652L44.04 78.92ZM37.68 80.84H36.68V81.84H37.68V80.84ZM17.04 72.68L16.1658 72.1944L16.1553 72.2133L16.1456 72.2328L17.04 72.68ZM17.4 82.76L16.583 83.3367L16.594 83.3523L16.6056 83.3674L17.4 82.76ZM22.2 86.6L21.7144 87.4742L21.7334 87.4847L21.7528 87.4944L22.2 86.6ZM30.84 90.44L31.2234 89.5164L31.2186 89.5145L30.84 90.44ZM41.16 95.72L41.7147 94.8879L41.7147 94.8879L41.16 95.72ZM46.92 101.84L46.0318 102.299L46.0379 102.311L46.0444 102.323L46.92 101.84ZM42.36 124.52L42.9455 125.331L42.9552 125.324L42.36 124.52ZM25.2 129.2V128.2C21.2764 128.2 17.9051 127.729 15.0685 126.809L14.76 127.76L14.4515 128.711C17.5349 129.711 21.1236 130.2 25.2 130.2V129.2ZM14.76 127.76L15.0685 126.809C12.2329 125.889 10.0759 124.57 8.53849 122.886L7.8 123.56L7.06152 124.234C8.88412 126.23 11.3671 127.711 14.4515 128.711L14.76 127.76ZM7.8 123.56L8.56822 122.92C7.1361 121.201 6.4 119.076 6.4 116.48H5.4H4.4C4.4 119.484 5.2639 122.079 7.03178 124.2L7.8 123.56ZM5.4 116.48H6.4C6.4 114.44 6.81752 112.998 7.52641 112.031L6.72 111.44L5.9136 110.849C4.86248 112.282 4.4 114.2 4.4 116.48H5.4ZM6.72 111.44L7.52641 112.031C8.32401 110.944 9.19106 110.235 10.1139 109.839L9.72 108.92L9.32608 108.001C8.00894 108.565 6.87599 109.536 5.9136 110.849L6.72 111.44ZM9.72 108.92L10.0914 109.848C11.2117 109.4 12.163 109.2 12.96 109.2V108.2V107.2C11.837 107.2 10.6283 107.48 9.34861 107.992L9.72 108.92ZM12.96 108.2H11.96C11.96 111.096 12.3738 113.767 13.2146 116.206L14.16 115.88L15.1054 115.554C14.3462 113.353 13.96 110.904 13.96 108.2H12.96ZM14.16 115.88L13.2146 116.206C14.0797 118.715 15.5636 120.73 17.662 122.216L18.24 121.4L18.818 120.584C17.0764 119.35 15.8403 117.685 15.1054 115.554L14.16 115.88ZM18.24 121.4L17.662 122.216C19.8021 123.732 22.586 124.44 25.92 124.44V123.44V122.44C22.854 122.44 20.5179 121.788 18.818 120.584L18.24 121.4ZM25.92 123.44V124.44C30.305 124.44 33.8195 123.406 36.306 121.186L35.64 120.44L34.974 119.694C32.9806 121.474 30.015 122.44 25.92 122.44V123.44ZM35.64 120.44L36.3075 121.185C38.8455 118.909 40.12 115.995 40.12 112.52H39.12H38.12C38.12 115.445 37.0745 117.811 34.9725 119.695L35.64 120.44ZM39.12 112.52H40.12C40.12 110.376 39.6476 108.522 38.624 107.033L37.8 107.6L36.976 108.167C37.7124 109.238 38.12 110.664 38.12 112.52H39.12ZM37.8 107.6L38.648 107.07C37.7184 105.583 36.0697 104.241 33.8456 103.006L33.36 103.88L32.8744 104.754C34.9703 105.919 36.2816 107.057 36.952 108.13L37.8 107.6ZM33.36 103.88L33.8841 103.028C31.7428 101.711 28.691 100.208 24.7539 98.5209L24.36 99.44L23.9661 100.359C27.869 102.032 30.8172 103.489 32.8359 104.732L33.36 103.88ZM24.36 99.44L24.7711 98.5284C20.7162 96.6997 17.3574 94.9595 14.6855 93.3092L14.16 94.16L13.6345 95.0108C16.4026 96.7205 19.8438 98.5003 23.9489 100.352L24.36 99.44ZM14.16 94.16L14.7147 93.3279C12.1712 91.6323 10.2846 89.7324 9.01479 87.641L8.16 88.16L7.30521 88.679C8.75543 91.0676 10.8688 93.1677 13.6053 94.992L14.16 94.16ZM8.16 88.16L9.03558 87.6769C7.85797 85.5425 7.24 82.84 7.24 79.52H6.24H5.24C5.24 83.08 5.90203 86.1375 7.28442 88.6431L8.16 88.16ZM6.24 79.52H7.24C7.24 74.371 9.14872 70.5308 12.9367 67.857L12.36 67.04L11.7833 66.223C7.41128 69.3092 5.24 73.789 5.24 79.52H6.24ZM12.36 67.04L12.9398 67.8548C16.8823 65.0495 22.1397 63.6 28.8 63.6V62.6V61.6C21.8603 61.6 16.1577 63.1105 11.7802 66.2252L12.36 67.04ZM28.8 62.6V63.6C32.5578 63.6 35.62 64.11 38.0236 65.0865L38.4 64.16L38.7764 63.2335C36.06 62.13 32.7222 61.6 28.8 61.6V62.6ZM38.4 64.16L38.0583 65.0998C40.5763 66.0154 42.3532 67.2411 43.4846 68.726L44.28 68.12L45.0754 67.514C43.6468 65.6389 41.5037 64.2246 38.7417 63.2202L38.4 64.16ZM44.28 68.12L43.5028 68.7492C44.7311 70.2666 45.32 71.8881 45.32 73.64H46.32H47.32C47.32 71.3919 46.5489 69.3334 45.0572 67.4908L44.28 68.12ZM46.32 73.64H45.32C45.32 75.5345 44.6674 77.0168 43.3732 78.1748L44.04 78.92L44.7068 79.6652C46.4526 78.1032 47.32 76.0655 47.32 73.64H46.32ZM44.04 78.92L43.3756 78.1726C42.1865 79.2296 40.3443 79.84 37.68 79.84V80.84V81.84C40.6157 81.84 43.0135 81.1704 44.7044 79.6674L44.04 78.92ZM37.68 80.84H38.68C38.68 76.7134 37.815 73.3533 35.96 70.88L35.16 71.48L34.36 72.08C35.865 74.0867 36.68 76.9666 36.68 80.84H37.68ZM35.16 71.48L35.96 70.88C34.0432 68.3242 31.1052 67.12 27.36 67.12V68.12V69.12C30.6548 69.12 32.9168 70.1558 34.36 72.08L35.16 71.48ZM27.36 68.12V67.12C24.5546 67.12 22.1917 67.5306 20.3301 68.4171L20.76 69.32L21.1899 70.2229C22.6883 69.5094 24.7254 69.12 27.36 69.12V68.12ZM20.76 69.32L20.3301 68.4171C18.4875 69.2945 17.0797 70.5494 16.1658 72.1944L17.04 72.68L17.9142 73.1656C18.6003 71.9306 19.6725 70.9455 21.1899 70.2229L20.76 69.32ZM17.04 72.68L16.1456 72.2328C15.344 73.8359 14.96 75.6744 14.96 77.72H15.96H16.96C16.96 75.9256 17.296 74.4041 17.9344 73.1272L17.04 72.68ZM15.96 77.72H14.96C14.96 79.884 15.4816 81.7763 16.583 83.3367L17.4 82.76L18.217 82.1833C17.3984 81.0237 16.96 79.5559 16.96 77.72H15.96ZM17.4 82.76L16.6056 83.3674C17.7575 84.8738 19.4833 86.2347 21.7144 87.4742L22.2 86.6L22.6856 85.7258C20.5967 84.5653 19.1225 83.3662 18.1944 82.1525L17.4 82.76ZM22.2 86.6L21.7528 87.4944C24.0236 88.6298 26.9287 89.9204 30.4614 91.3655L30.84 90.44L31.2186 89.5145C27.7113 88.0796 24.8564 86.8102 22.6472 85.7056L22.2 86.6ZM30.84 90.44L30.4566 91.3636C34.6607 93.1087 38.0374 94.8401 40.6053 96.552L41.16 95.72L41.7147 94.8879C39.0027 93.0799 35.4993 91.2913 31.2234 89.5164L30.84 90.44ZM41.16 95.72L40.6053 96.552C43.1344 98.2381 44.9247 100.159 46.0318 102.299L46.92 101.84L47.8082 101.381C46.5153 98.881 44.4656 96.7219 41.7147 94.8879L41.16 95.72ZM46.92 101.84L46.0444 102.323C47.2238 104.461 47.84 107.125 47.84 110.36H48.84H49.84C49.84 106.875 49.1762 103.859 47.7956 101.357L46.92 101.84ZM48.84 110.36H47.84C47.84 116.341 45.7869 120.737 41.7648 123.716L42.36 124.52L42.9552 125.324C47.5731 121.903 49.84 116.859 49.84 110.36H48.84ZM42.36 124.52L41.7745 123.709C37.6739 126.671 32.1796 128.2 25.2 128.2V129.2V130.2C32.4604 130.2 38.4061 128.609 42.9455 125.331L42.36 124.52ZM69.6206 125.12L68.9033 125.817L68.9134 125.827L68.9238 125.837L69.6206 125.12ZM65.5406 70.52H66.5406V69.52H65.5406V70.52ZM56.4206 70.52H55.4206V71.52H56.4206V70.52ZM56.4206 65.72V64.72H55.4206V65.72H56.4206ZM61.2206 64.88L61.5238 65.8329L61.5432 65.8267L61.5624 65.8198L61.2206 64.88ZM65.7806 61.88L65.0536 61.1934L65.0524 61.1946L65.7806 61.88ZM69.1406 56.6L68.2197 56.2104L68.2197 56.2104L69.1406 56.6ZM71.3006 48.92V47.92H70.468L70.3172 48.7388L71.3006 48.92ZM76.8206 48.92H77.8206V47.92H76.8206V48.92ZM76.8206 63.68H75.8206V64.68H76.8206V63.68ZM92.5406 63.68H93.5406V62.68H92.5406V63.68ZM92.5406 70.52V71.52H93.5406V70.52H92.5406ZM76.8206 70.52V69.52H75.8206V70.52H76.8206ZM79.3406 119.96L78.588 120.619L78.588 120.619L79.3406 119.96ZM89.9006 122.6L89.7685 121.609L89.7685 121.609L89.9006 122.6ZM93.6206 122H94.6206V120.795L93.4363 121.017L93.6206 122ZM93.6206 127.28L94.0397 128.188L94.6206 127.92V127.28H93.6206ZM88.9406 128.6L89.1295 129.582L89.1295 129.582L88.9406 128.6ZM82.9406 129.2V128.2C76.9803 128.2 72.8497 126.863 70.3174 124.403L69.6206 125.12L68.9238 125.837C71.9915 128.817 76.741 130.2 82.9406 130.2V129.2ZM69.6206 125.12L70.3379 124.423C67.8954 121.909 66.5406 117.402 66.5406 110.6H65.5406H64.5406C64.5406 117.558 65.9058 122.731 68.9033 125.817L69.6206 125.12ZM65.5406 110.6H66.5406V70.52H65.5406H64.5406V110.6H65.5406ZM65.5406 70.52V69.52H56.4206V70.52V71.52H65.5406V70.52ZM56.4206 70.52H57.4206V65.72H56.4206H55.4206V70.52H56.4206ZM56.4206 65.72V66.72C57.9878 66.72 59.692 66.4158 61.5238 65.8329L61.2206 64.88L60.9174 63.9271C59.2292 64.4642 57.7334 64.72 56.4206 64.72V65.72ZM61.2206 64.88L61.5624 65.8198C63.4689 65.1265 65.1214 64.0395 66.5088 62.5654L65.7806 61.88L65.0524 61.1946C63.8799 62.4405 62.4924 63.3535 60.8789 63.9402L61.2206 64.88ZM65.7806 61.88L66.5076 62.5666C67.9601 61.0287 69.1416 59.1642 70.0616 56.9896L69.1406 56.6L68.2197 56.2104C67.3797 58.1958 66.3212 59.8513 65.0536 61.1934L65.7806 61.88ZM69.1406 56.6L70.0616 56.9896C70.9782 54.8232 71.7154 52.1885 72.2841 49.1012L71.3006 48.92L70.3172 48.7388C69.7659 51.7315 69.0631 54.2168 68.2197 56.2104L69.1406 56.6ZM71.3006 48.92V49.92H76.8206V48.92V47.92H71.3006V48.92ZM76.8206 48.92H75.8206V63.68H76.8206H77.8206V48.92H76.8206ZM76.8206 63.68V64.68H92.5406V63.68V62.68H76.8206V63.68ZM92.5406 63.68H91.5406V70.52H92.5406H93.5406V63.68H92.5406ZM92.5406 70.52V69.52H76.8206V70.52V71.52H92.5406V70.52ZM76.8206 70.52H75.8206V110.96H76.8206H77.8206V70.52H76.8206ZM76.8206 110.96H75.8206C75.8206 115.145 76.6769 118.434 78.588 120.619L79.3406 119.96L80.0932 119.301C78.6443 117.646 77.8206 114.935 77.8206 110.96H76.8206ZM79.3406 119.96L78.588 120.619C80.4717 122.771 82.9539 123.84 85.9406 123.84V122.84V121.84C83.4874 121.84 81.5695 120.989 80.0932 119.301L79.3406 119.96ZM85.9406 122.84V123.84C87.4168 123.84 88.7817 123.758 90.0328 123.591L89.9006 122.6L89.7685 121.609C88.6196 121.762 87.3444 121.84 85.9406 121.84V122.84ZM89.9006 122.6L90.0328 123.591C91.2515 123.429 92.5089 123.226 93.8049 122.983L93.6206 122L93.4363 121.017C92.1724 121.254 90.9498 121.451 89.7685 121.609L89.9006 122.6ZM93.6206 122H92.6206V127.28H93.6206H94.6206V122H93.6206ZM93.6206 127.28L93.2016 126.372C92.2727 126.801 90.8073 127.223 88.7518 127.618L88.9406 128.6L89.1295 129.582C91.2339 129.177 92.8886 128.719 94.0397 128.188L93.6206 127.28ZM88.9406 128.6L88.7518 127.618C86.7277 128.007 84.7911 128.2 82.9406 128.2V129.2V130.2C84.9301 130.2 86.9935 129.993 89.1295 129.582L88.9406 128.6Z" fill="black" mask="url(#path-4-outside-2_1_6)"/>
</svg>
