<svg width="549" height="163" viewBox="0 0 549 163" fill="none" xmlns="http://www.w3.org/2000/svg">
<path d="M131.44 129.2C122.8 129.2 116 126.44 111.04 120.92C106.08 115.4 103.6 107 103.6 95.72C103.6 84.52 105.96 76.2 110.68 70.76C115.48 65.24 122.52 62.48 131.8 62.48C140.44 62.48 147.24 65.24 152.2 70.76C157.16 76.2 159.64 84.52 159.64 95.72C159.64 107 157.24 115.4 152.44 120.92C147.72 126.44 140.72 129.2 131.44 129.2ZM131.68 122.96C135.68 122.96 138.88 121.96 141.28 119.96C143.68 117.88 145.4 114.8 146.44 110.72C147.48 106.64 148 101.64 148 95.72C148 89.72 147.44 84.76 146.32 80.84C145.28 76.84 143.56 73.84 141.16 71.84C138.76 69.84 135.56 68.84 131.56 68.84C127.56 68.84 124.36 69.84 121.96 71.84C119.56 73.84 117.84 76.84 116.8 80.84C115.76 84.76 115.24 89.72 115.24 95.72C115.24 101.64 115.76 106.64 116.8 110.72C117.92 114.8 119.68 117.88 122.08 119.96C124.48 121.96 127.68 122.96 131.68 122.96ZM170.218 128V122.96H170.578C172.418 122.96 174.058 122.76 175.498 122.36C177.018 121.96 178.218 121.16 179.098 119.96C179.978 118.68 180.418 116.8 180.418 114.32V76.88C180.418 74.48 179.938 72.72 178.978 71.6C178.098 70.4 176.898 69.64 175.378 69.32C173.938 68.92 172.338 68.72 170.578 68.72H170.218V63.68H188.698L190.978 75.56H191.578C192.618 73.16 193.738 70.96 194.938 68.96C196.138 66.96 197.738 65.4 199.738 64.28C201.738 63.08 204.498 62.48 208.018 62.48C212.418 62.48 215.658 63.24 217.738 64.76C219.898 66.28 220.978 68.44 220.978 71.24C220.978 73.72 220.098 75.76 218.338 77.36C216.658 78.96 213.818 79.76 209.818 79.76C209.818 77.52 209.618 75.72 209.218 74.36C208.818 73 208.138 72 207.178 71.36C206.298 70.72 205.058 70.4 203.458 70.4C201.218 70.4 199.338 71.28 197.818 73.04C196.298 74.8 195.098 77.04 194.218 79.76C193.338 82.48 192.698 85.32 192.298 88.28C191.898 91.16 191.698 93.76 191.698 96.08V114.92C191.698 117.24 192.138 119 193.018 120.2C193.978 121.32 195.178 122.08 196.618 122.48C198.138 122.8 199.778 122.96 201.538 122.96H204.898V128H170.218ZM227.302 151.16C231.382 151.16 234.902 150.56 237.862 149.36C240.822 148.16 243.342 146.48 245.422 144.32C247.502 142.24 249.262 139.76 250.702 136.88C252.142 134 253.342 130.88 254.302 127.52L232.102 75.08C231.382 73.4 230.662 72.12 229.942 71.24C229.222 70.28 228.382 69.64 227.422 69.32C226.462 68.92 225.182 68.72 223.582 68.72H223.222V63.68H252.022V68.72H251.662C249.262 68.72 247.462 69.2 246.262 70.16C245.062 71.04 244.462 72.48 244.462 74.48C244.462 75.12 244.542 75.8 244.702 76.52C244.862 77.24 245.102 78.04 245.422 78.92L254.182 100.28C254.742 101.64 255.302 103.12 255.862 104.72C256.502 106.32 257.102 107.92 257.662 109.52C258.222 111.12 258.702 112.64 259.102 114.08C259.502 115.52 259.782 116.72 259.942 117.68C260.502 115.36 261.222 112.96 262.102 110.48C263.062 108 263.942 105.56 264.742 103.16L272.782 79.76C273.182 78.8 273.462 77.88 273.622 77C273.782 76.04 273.862 75.24 273.862 74.6C273.862 72.52 273.182 71.04 271.822 70.16C270.542 69.2 268.582 68.72 265.942 68.72H265.582V63.68H290.542V68.72H290.182C288.662 68.72 287.382 68.96 286.342 69.44C285.302 69.92 284.382 70.84 283.582 72.2C282.862 73.56 282.022 75.52 281.062 78.08L262.822 128.48C260.742 134.32 258.742 139.08 256.822 142.76C254.902 146.44 252.742 149.28 250.342 151.28C248.022 153.36 245.102 154.8 241.582 155.6C238.062 156.4 233.662 156.8 228.382 156.8H227.302V151.16ZM319.394 129.2C313.314 129.2 308.874 127.84 306.074 125.12C303.354 122.32 301.994 117.48 301.994 110.6V70.52H292.874V65.72C294.314 65.72 295.914 65.44 297.674 64.88C299.434 64.24 300.954 63.24 302.234 61.88C303.594 60.44 304.714 58.68 305.594 56.6C306.474 54.52 307.194 51.96 307.754 48.92H313.274V63.68H328.994V70.52H313.274V110.96C313.274 115.04 314.114 118.04 315.794 119.96C317.474 121.88 319.674 122.84 322.394 122.84C323.834 122.84 325.154 122.76 326.354 122.6C327.554 122.44 328.794 122.24 330.074 122V127.28C329.034 127.76 327.474 128.2 325.394 128.6C323.314 129 321.314 129.2 319.394 129.2ZM335.541 128V122.96H337.101C338.861 122.96 340.461 122.8 341.901 122.48C343.421 122.08 344.621 121.32 345.501 120.2C346.461 119 346.941 117.24 346.941 114.92V76.88C346.941 74.48 346.461 72.72 345.501 71.6C344.621 70.4 343.421 69.64 341.901 69.32C340.461 68.92 338.861 68.72 337.101 68.72H336.741V63.68H358.221V114.32C358.221 116.8 358.661 118.68 359.541 119.96C360.421 121.16 361.621 121.96 363.141 122.36C364.661 122.76 366.301 122.96 368.061 122.96H369.621V128H335.541ZM352.101 51.68C350.181 51.68 348.541 51.12 347.181 50C345.901 48.88 345.261 46.96 345.261 44.24C345.261 41.44 345.901 39.52 347.181 38.48C348.541 37.36 350.181 36.8 352.101 36.8C353.941 36.8 355.541 37.36 356.901 38.48C358.261 39.52 358.941 41.44 358.941 44.24C358.941 46.96 358.261 48.88 356.901 50C355.541 51.12 353.941 51.68 352.101 51.68ZM374.579 128V122.96H376.139C377.979 122.96 379.579 122.76 380.939 122.36C382.299 121.96 383.379 121.16 384.179 119.96C384.979 118.68 385.379 116.8 385.379 114.32V76.88C385.379 74.48 384.979 72.72 384.179 71.6C383.379 70.4 382.259 69.64 380.819 69.32C379.459 68.92 377.899 68.72 376.139 68.72H375.779V63.68H394.619L396.179 73.4H396.779C398.379 70.36 400.099 68.08 401.939 66.56C403.779 64.96 405.779 63.88 407.939 63.32C410.099 62.76 412.419 62.48 414.899 62.48C417.459 62.48 419.859 62.84 422.099 63.56C424.419 64.28 426.459 65.44 428.219 67.04C429.979 68.56 431.339 70.68 432.299 73.4H433.259C434.859 70.36 436.619 68.08 438.539 66.56C440.539 64.96 442.659 63.88 444.899 63.32C447.219 62.76 449.619 62.48 452.099 62.48C458.259 62.48 463.059 64.36 466.499 68.12C469.939 71.8 471.659 77.76 471.659 86V114.32C471.659 116.8 472.059 118.68 472.859 119.96C473.659 121.16 474.739 121.96 476.099 122.36C477.539 122.76 479.139 122.96 480.899 122.96H481.259V128H460.379V86.6C460.379 81.4 459.419 77.36 457.499 74.48C455.659 71.6 452.419 70.16 447.779 70.16C444.499 70.16 441.859 71 439.859 72.68C437.939 74.28 436.539 76.44 435.659 79.16C434.859 81.88 434.459 84.84 434.459 88.04V114.32C434.459 116.8 434.859 118.68 435.659 119.96C436.459 121.16 437.539 121.96 438.899 122.36C440.339 122.76 441.939 122.96 443.699 122.96H444.059V128H423.179V86.6C423.179 81.4 422.219 77.36 420.299 74.48C418.459 71.6 415.219 70.16 410.579 70.16C407.139 70.16 404.379 71.08 402.299 72.92C400.299 74.68 398.859 77.04 397.979 80C397.099 82.96 396.659 86.16 396.659 89.6V114.92C396.659 117.24 397.099 119 397.979 120.2C398.939 121.32 400.139 122.08 401.579 122.48C403.099 122.8 404.739 122.96 406.499 122.96H406.859V128H374.579ZM519.096 129.2C510.376 129.2 503.536 126.32 498.576 120.56C493.696 114.8 491.256 106.72 491.256 96.32C491.256 85.12 493.576 76.68 498.216 71C502.856 65.32 509.416 62.48 517.896 62.48C525.656 62.48 531.736 64.88 536.136 69.68C540.616 74.48 542.856 81.64 542.856 91.16V96.68H502.896C503.056 102.52 503.816 107.28 505.176 110.96C506.536 114.64 508.496 117.36 511.056 119.12C513.696 120.8 516.936 121.64 520.776 121.64C523.576 121.64 526.056 121.24 528.216 120.44C530.456 119.64 532.376 118.6 533.976 117.32C535.656 116.04 536.976 114.68 537.936 113.24C538.496 113.48 539.016 113.96 539.496 114.68C539.976 115.4 540.216 116.28 540.216 117.32C540.216 118.92 539.456 120.64 537.936 122.48C536.416 124.32 534.096 125.92 530.976 127.28C527.856 128.56 523.896 129.2 519.096 129.2ZM530.736 90.2C530.736 85.96 530.296 82.24 529.416 79.04C528.616 75.84 527.256 73.36 525.336 71.6C523.416 69.84 520.856 68.96 517.656 68.96C514.696 68.96 512.176 69.8 510.096 71.48C508.096 73.08 506.496 75.44 505.296 78.56C504.176 81.68 503.456 85.56 503.136 90.2H530.736Z" fill="black"/>
<rect y="9" width="100" height="142" fill="black"/>
<path d="M25.2 129.2C21.2 129.2 17.72 128.72 14.76 127.76C11.8 126.8 9.48 125.4 7.8 123.56C6.2 121.64 5.4 119.28 5.4 116.48C5.4 114.32 5.84 112.64 6.72 111.44C7.6 110.24 8.6 109.4 9.72 108.92C10.92 108.44 12 108.2 12.96 108.2C12.96 111 13.36 113.56 14.16 115.88C14.96 118.2 16.32 120.04 18.24 121.4C20.16 122.76 22.72 123.44 25.92 123.44C30.16 123.44 33.4 122.44 35.64 120.44C37.96 118.36 39.12 115.72 39.12 112.52C39.12 110.52 38.68 108.88 37.8 107.6C37 106.32 35.52 105.08 33.36 103.88C31.28 102.6 28.28 101.12 24.36 99.44C20.28 97.6 16.88 95.84 14.16 94.16C11.52 92.4 9.52 90.4 8.16 88.16C6.88 85.84 6.24 82.96 6.24 79.52C6.24 74.08 8.28 69.92 12.36 67.04C16.52 64.08 22 62.6 28.8 62.6C32.64 62.6 35.84 63.12 38.4 64.16C41.04 65.12 43 66.44 44.28 68.12C45.64 69.8 46.32 71.64 46.32 73.64C46.32 75.8 45.56 77.56 44.04 78.92C42.6 80.2 40.48 80.84 37.68 80.84C37.68 76.84 36.84 73.72 35.16 71.48C33.48 69.24 30.88 68.12 27.36 68.12C24.64 68.12 22.44 68.52 20.76 69.32C19.08 70.12 17.84 71.24 17.04 72.68C16.32 74.12 15.96 75.8 15.96 77.72C15.96 79.72 16.44 81.4 17.4 82.76C18.44 84.12 20.04 85.4 22.2 86.6C24.44 87.72 27.32 89 30.84 90.44C35.08 92.2 38.52 93.96 41.16 95.72C43.8 97.48 45.72 99.52 46.92 101.84C48.2 104.16 48.84 107 48.84 110.36C48.84 116.6 46.68 121.32 42.36 124.52C38.04 127.64 32.32 129.2 25.2 129.2ZM82.9406 129.2C76.8606 129.2 72.4206 127.84 69.6206 125.12C66.9006 122.32 65.5406 117.48 65.5406 110.6V70.52H56.4206V65.72C57.8606 65.72 59.4606 65.44 61.2206 64.88C62.9806 64.24 64.5006 63.24 65.7806 61.88C67.1406 60.44 68.2606 58.68 69.1406 56.6C70.0206 54.52 70.7406 51.96 71.3006 48.92H76.8206V63.68H92.5406V70.52H76.8206V110.96C76.8206 115.04 77.6606 118.04 79.3406 119.96C81.0206 121.88 83.2206 122.84 85.9406 122.84C87.3806 122.84 88.7006 122.76 89.9006 122.6C91.1006 122.44 92.3406 122.24 93.6206 122V127.28C92.5806 127.76 91.0206 128.2 88.9406 128.6C86.8606 129 84.8606 129.2 82.9406 129.2Z" fill="white"/>
</svg>
